<svg width="39" height="39" viewBox="0 0 39 39" fill="none" xmlns="http://www.w3.org/2000/svg">
<path d="M30.875 13C29.5208 13 28.3698 12.526 27.4219 11.5781C26.474 10.6302 26 9.47917 26 8.125C26 6.77083 26.474 5.61979 27.4219 4.67188C28.3698 3.72396 29.5208 3.25 30.875 3.25C32.2292 3.25 33.3802 3.72396 34.3281 4.67188C35.276 5.61979 35.75 6.77083 35.75 8.125C35.75 9.47917 35.276 10.6302 34.3281 11.5781C33.3802 12.526 32.2292 13 30.875 13ZM6.5 32.5C5.60625 32.5 4.84115 32.1818 4.20469 31.5453C3.56823 30.9089 3.25 30.1437 3.25 29.25V9.75C3.25 8.85625 3.56823 8.09115 4.20469 7.45469C4.84115 6.81823 5.60625 6.5 6.5 6.5H22.9125C22.8042 7.04167 22.75 7.58333 22.75 8.125C22.75 8.66667 22.8042 9.20833 22.9125 9.75C23.1021 10.6167 23.4135 11.4224 23.8469 12.1672C24.2802 12.912 24.8083 13.5688 25.4313 14.1375L19.5 17.875L6.5 9.75V13L19.5 21.125L28.0719 15.7625C28.5323 15.925 28.9927 16.0469 29.4531 16.1281C29.9135 16.2094 30.3875 16.25 30.875 16.25C31.7417 16.25 32.5948 16.1146 33.4344 15.8438C34.274 15.5729 35.0458 15.1667 35.75 14.625V29.25C35.75 30.1437 35.4318 30.9089 34.7953 31.5453C34.1589 32.1818 33.3937 32.5 32.5 32.5H6.5Z" fill="#79747E"/>
</svg>
